# xmcd
#
# Track frame offsets: 
#        150
#        15732
#        30897
#        49003
#        67418
#        82374
#        99129
#        114995
#
# Disc length: 1740 seconds
#
# Revision: 2
# Processed by: cddbd v1.5.2PL0 Copyright (c) Steve Scherf et al.
# Submitted via: ExactAudioCopy v1.0b3
#
DISCID=5f06ca08
DTITLE=Sabri Fejzullahu - E jeta shkon
DYEAR=2013
DGENRE=shqip
TTITLE0=Beso mos beso
TTITLE1=Sabri Fejzullahu and Vjollca Haxhiu - Mbretëresha e mbreti
TTITLE2=Dy student
TTITLE3=Një fotografi
TTITLE4=Kush dashnin nuk e çmon
TTITLE5=E vertete
TTITLE6=E jeta shkon
TTITLE7=Natën e mirë
EXTD=
EXTT0=
EXTT1=
EXTT2=
EXTT3=
EXTT4=
EXTT5=
EXTT6=
EXTT7=
PLAYORDER=
